<svg xmlns="http://www.w3.org/2000/svg" xmlns:xlink="http://www.w3.org/1999/xlink" version="1.1" x="0px" y="0px" viewBox="0 0 100 125" enable-background="new 0 0 100 100" xml:space="preserve"><g><path d="M35.831,22.125c0.856,0.401,1.778,0.603,2.708,0.603c0.708,0,1.421-0.117,2.113-0.353c3.32-1.129,5.133-4.662,4.042-7.875   c-0.178-0.523-0.747-0.804-1.269-0.625c-0.523,0.178-0.803,0.746-0.625,1.269c0.737,2.169-0.515,4.564-2.792,5.338   c-1.11,0.376-2.292,0.317-3.329-0.168c-1.023-0.479-1.783-1.318-2.138-2.362c-0.178-0.523-0.747-0.803-1.269-0.625   c-0.523,0.178-0.803,0.746-0.625,1.269C33.18,20.16,34.311,21.413,35.831,22.125z"/><path d="M34.376,36.417c0.686,0.388,1.437,0.585,2.193,0.585c0.422,0,0.845-0.062,1.26-0.186c0.529-0.158,0.83-0.715,0.671-1.245   c-0.158-0.529-0.715-0.831-1.245-0.671c-0.632,0.188-1.305,0.109-1.895-0.225c-0.603-0.341-1.047-0.904-1.251-1.586   c-0.204-0.681-0.141-1.396,0.176-2.012c0.311-0.603,0.829-1.039,1.461-1.228c0.529-0.158,0.83-0.715,0.672-1.244   c-0.158-0.529-0.717-0.832-1.244-0.672c-1.158,0.346-2.105,1.137-2.667,2.229c-0.555,1.078-0.667,2.321-0.314,3.5   C32.545,34.842,33.321,35.82,34.376,36.417z"/><path d="M38.585,40.414c-0.179-0.523-0.747-0.803-1.271-0.621c-0.522,0.179-0.8,0.748-0.621,1.271   c0.635,1.849,2.399,3.006,4.302,3.006c0.511,0,1.031-0.083,1.542-0.259c2.417-0.83,3.729-3.413,2.925-5.757   c-0.179-0.523-0.749-0.802-1.27-0.622c-0.522,0.179-0.801,0.748-0.622,1.27c0.446,1.302-0.308,2.746-1.683,3.217   C40.516,42.391,39.032,41.715,38.585,40.414z"/><path d="M39.489,60.91c0.286,2.354,2.246,4.093,4.493,4.093c0.175,0,0.351-0.01,0.529-0.031c0.548-0.067,0.938-0.565,0.872-1.113   c-0.066-0.549-0.563-0.938-1.113-0.873c-1.36,0.166-2.62-0.873-2.795-2.315c-0.085-0.706,0.097-1.4,0.514-1.954   c0.408-0.542,0.993-0.884,1.647-0.963c0.548-0.067,0.938-0.565,0.872-1.113c-0.066-0.549-0.571-0.935-1.113-0.873   c-1.2,0.146-2.267,0.766-3.005,1.747C39.661,58.482,39.34,59.688,39.489,60.91z"/><path d="M39.036,49.026c-1.257-3.212-4.809-4.836-7.917-3.62c-0.514,0.201-0.768,0.781-0.567,1.295   c0.201,0.514,0.78,0.769,1.295,0.567c2.081-0.815,4.471,0.301,5.326,2.486c0.854,2.186-0.144,4.626-2.225,5.439   c-0.514,0.201-0.768,0.781-0.567,1.296c0.154,0.395,0.532,0.636,0.932,0.636c0.121,0,0.244-0.021,0.364-0.068   C38.785,55.842,40.292,52.239,39.036,49.026z"/><path d="M53.309,9.237c-0.292-0.036-0.572,0.055-0.787,0.247s-0.336,0.466-0.334,0.754l0.007,64.12c0,0.553,0.447,1,1,1h11.931   c0.553,0,1-0.447,1-1V64.257c9.248-5.575,14.969-15.488,14.969-26.009C81.094,22.201,70.707,11.356,53.309,9.237z M54.194,43.472   H56.6c-0.078,0.555-0.135,1.146-0.165,1.778v28.107h-2.24V43.472z M64.625,62.819c-0.31,0.179-0.5,0.509-0.5,0.866v9.672h-5.69   l-0.001-28.059c0.031-0.646,0.094-1.255,0.188-1.828l1.758-0.003c1.59,0.134,4.884-0.458,6.021-3.696   c0.404-1.151,0.153-2.363-0.67-3.243c-0.822-0.879-2.065-1.221-3.243-0.895c-2.016,0.56-4.374,2.048-5.467,5.837h-2.826V11.375   c15.618,2.306,24.899,12.283,24.899,26.874C79.094,48.397,73.685,57.583,64.625,62.819z M59.127,41.472   c0.744-2.07,2.06-3.4,3.896-3.911c0.467-0.128,0.932-0.003,1.248,0.334c0.146,0.156,0.463,0.587,0.243,1.213   c-0.903,2.572-3.844,2.376-4.048,2.363H59.127z"/><path d="M63.923,76.641H37.956c-0.552,0-1,0.447-1,1v6.841c0,4.021,3.272,7.294,7.293,7.294h0.852   c0.268,0.867,0.865,1.663,1.736,2.27c1.108,0.771,2.562,1.196,4.093,1.196c0.006,0,0.012,0,0.018,0   c2.883-0.006,5.223-1.463,5.832-3.466h0.85c4.021,0,7.293-3.272,7.293-7.294v-6.841C64.923,77.088,64.476,76.641,63.923,76.641z    M38.956,84.481v-1.648h23.967v1.648c0,0.178-0.035,0.345-0.052,0.519H39.008C38.991,84.827,38.956,84.659,38.956,84.481z    M62.923,78.641v2.192H38.956v-2.192H62.923z M50.944,93.241c-0.004,0-0.009,0-0.013,0c-1.111,0-2.186-0.305-2.951-0.838   c-0.195-0.135-0.456-0.348-0.668-0.628h7.241C53.91,92.627,52.521,93.238,50.944,93.241z M57.63,89.775h-1.492   c-0.066-0.014-0.128-0.04-0.199-0.04c-0.001,0-0.001,0-0.002,0c-0.07,0-0.131,0.026-0.196,0.04h-9.699   c-0.035-0.004-0.066-0.021-0.102-0.021c0,0-0.001,0-0.002,0c-0.036,0-0.066,0.017-0.101,0.021H44.25   c-2.003,0-3.728-1.131-4.627-2.775h22.634C61.357,88.644,59.632,89.775,57.63,89.775z"/><path d="M48.319,75.609c0.007,0,0.015,0,0.022,0c0.261,0,0.512-0.103,0.699-0.285c0.192-0.188,0.301-0.445,0.301-0.715V10.705   c0-0.265-0.105-0.52-0.293-0.707c-0.114-0.115-2.856-2.805-7.123-2.747c-3.25,0.046-6.439,1.659-9.481,4.793   c-1.134,0.207-4.551,1.044-6.392,3.834c-0.915,1.386-1.286,3.025-1.134,4.884c-1.197,0.689-2.354,1.743-3.221,3.363   c-1.294,2.417-1.398,5.192-0.374,7.979c-1.699,1.072-3.244,2.947-3.807,6.226c-0.743,4.318,1.596,7.435,4.228,9.379   c-0.012,0.203-0.03,0.404-0.03,0.61c0,5.398,4.123,9.805,9.276,10.05c0.506,2.456,1.951,5.094,5.238,6.556v9.432   c0,0.543,0.434,0.987,0.978,1L48.319,75.609z M32.903,54.603c0.11-0.54-0.237-1.067-0.777-1.18   c-0.542-0.107-1.07,0.236-1.182,0.777c-0.124,0.599-0.194,1.343-0.179,2.158c-3.743-0.34-6.725-3.478-7.021-7.397   c0.696,0.361,1.364,0.642,1.948,0.835c0.104,0.034,0.209,0.051,0.313,0.05c0.419,0,0.809-0.266,0.948-0.686   c0.174-0.523-0.11-1.089-0.633-1.264c-0.117-0.039-1.19-0.412-2.455-1.17c0.71-3.69,3.835-6.479,7.572-6.479c0.552,0,1-0.448,1-1   s-0.448-1-1-1c-4.403,0-8.126,3.049-9.32,7.214c-1.705-1.483-3.166-3.692-2.632-6.792c0.415-2.41,1.482-3.849,2.686-4.712   c0.39,0.71,0.847,1.416,1.382,2.111c0.197,0.256,0.493,0.39,0.793,0.39c0.213,0,0.428-0.067,0.609-0.208   c0.438-0.336,0.52-0.964,0.183-1.402c-0.455-0.591-0.826-1.189-1.158-1.787c1.551-0.487,2.922-0.337,3.053-0.321   c0.543,0.072,1.05-0.309,1.124-0.856c0.075-0.547-0.309-1.051-0.855-1.126c-0.04-0.006-1.985-0.238-4.149,0.486   c-0.758-2.194-0.679-4.335,0.306-6.176c0.508-0.95,1.153-1.642,1.843-2.157c0.026,0.096,0.043,0.188,0.071,0.284   c0.156,0.53,0.71,0.835,1.241,0.679c0.53-0.155,0.834-0.71,0.679-1.241c-0.068-0.233-0.122-0.459-0.173-0.683   c1.723-0.596,3.282-0.42,3.409-0.405c0.543,0.072,1.049-0.311,1.123-0.858s-0.311-1.051-0.858-1.124   c-0.134-0.018-1.875-0.224-3.906,0.366c0.011-1.121,0.281-2.108,0.828-2.942c1.663-2.532,5.304-3.014,5.338-3.018   c0.232-0.028,0.447-0.136,0.607-0.306c2.719-2.879,5.499-4.364,8.263-4.414c2.721-0.048,4.698,1.326,5.417,1.907V24.51   c-0.398-0.211-0.821-0.382-1.281-0.467c-1.192-0.222-2.415,0.028-3.443,0.706c-1.028,0.677-1.742,1.7-2.01,2.883   c-0.271,1.197-0.055,2.412,0.609,3.421c0.192,0.292,0.511,0.45,0.836,0.45c0.188,0,0.379-0.053,0.549-0.165   c0.461-0.304,0.589-0.924,0.286-1.385c-0.363-0.551-0.479-1.218-0.33-1.879c0.153-0.676,0.565-1.263,1.159-1.654   c0.595-0.391,1.296-0.536,1.978-0.41c0.667,0.124,1.233,0.495,1.596,1.046c0.014,0.021,0.036,0.032,0.051,0.052v22.189   c-0.156,0.088-0.299,0.202-0.392,0.37c-0.267,0.481-0.715,0.825-1.262,0.971c-0.561,0.148-1.158,0.072-1.681-0.219   c-0.522-0.29-0.903-0.755-1.074-1.31c-0.167-0.541-0.111-1.104,0.155-1.585c0.268-0.483,0.094-1.091-0.39-1.359   c-0.481-0.269-1.092-0.094-1.359,0.39c-0.533,0.96-0.646,2.077-0.318,3.143c0.323,1.052,1.04,1.93,2.016,2.471   c0.649,0.36,1.363,0.545,2.082,0.545c0.362,0,0.726-0.047,1.083-0.142c0.416-0.11,0.791-0.297,1.141-0.519v21.537l-9.114-0.207   v-9.126c0-0.418-0.26-0.792-0.653-0.938C31.663,61.126,32.85,54.868,32.903,54.603z"/></g><text x="0" y="115" fill="#000000" font-size="5px" font-weight="bold" font-family="'Helvetica Neue', Helvetica, Arial-Unicode, Arial, Sans-serif">Created by ivisual</text><text x="0" y="120" fill="#000000" font-size="5px" font-weight="bold" font-family="'Helvetica Neue', Helvetica, Arial-Unicode, Arial, Sans-serif">from the Noun Project</text></svg>